<svg width="19" height="18" viewBox="0 0 19 18" fill="none" xmlns="http://www.w3.org/2000/svg">
<g clip-path="url(#clip0_1_411)">
<path d="M9.52344 1.5C11.5612 1.5 11.8154 1.5075 12.6149 1.545C13.4137 1.5825 13.9574 1.70775 14.4359 1.89375C14.9309 2.08425 15.3479 2.34225 15.7649 2.7585C16.1463 3.13342 16.4414 3.58694 16.6297 4.0875C16.8149 4.56525 16.9409 5.10975 16.9784 5.9085C17.0137 6.708 17.0234 6.96225 17.0234 9C17.0234 11.0378 17.0159 11.292 16.9784 12.0915C16.9409 12.8903 16.8149 13.434 16.6297 13.9125C16.4419 14.4133 16.1468 14.867 15.7649 15.2415C15.3899 15.6227 14.9364 15.9178 14.4359 16.1063C13.9582 16.2915 13.4137 16.4175 12.6149 16.455C11.8154 16.4903 11.5612 16.5 9.52344 16.5C7.48569 16.5 7.23144 16.4925 6.43194 16.455C5.63319 16.4175 5.08944 16.2915 4.61094 16.1063C4.11018 15.9184 3.65658 15.6232 3.28194 15.2415C2.90049 14.8666 2.60539 14.4131 2.41719 13.9125C2.23119 13.4347 2.10594 12.8903 2.06844 12.0915C2.03319 11.292 2.02344 11.0378 2.02344 9C2.02344 6.96225 2.03094 6.708 2.06844 5.9085C2.10594 5.109 2.23119 4.566 2.41719 4.0875C2.60486 3.58663 2.90004 3.13299 3.28194 2.7585C3.65669 2.37692 4.11026 2.0818 4.61094 1.89375C5.08944 1.70775 5.63244 1.5825 6.43194 1.545C7.23144 1.50975 7.48569 1.5 9.52344 1.5ZM9.52344 5.25C8.52888 5.25 7.57505 5.64509 6.87179 6.34835C6.16853 7.05161 5.77344 8.00544 5.77344 9C5.77344 9.99456 6.16853 10.9484 6.87179 11.6517C7.57505 12.3549 8.52888 12.75 9.52344 12.75C10.518 12.75 11.4718 12.3549 12.1751 11.6517C12.8783 10.9484 13.2734 9.99456 13.2734 9C13.2734 8.00544 12.8783 7.05161 12.1751 6.34835C11.4718 5.64509 10.518 5.25 9.52344 5.25ZM14.3984 5.0625C14.3984 4.81386 14.2997 4.5754 14.1239 4.39959C13.948 4.22377 13.7096 4.125 13.4609 4.125C13.2123 4.125 12.9738 4.22377 12.798 4.39959C12.6222 4.5754 12.5234 4.81386 12.5234 5.0625C12.5234 5.31114 12.6222 5.5496 12.798 5.72541C12.9738 5.90123 13.2123 6 13.4609 6C13.7096 6 13.948 5.90123 14.1239 5.72541C14.2997 5.5496 14.3984 5.31114 14.3984 5.0625ZM9.52344 6.75C10.1202 6.75 10.6925 6.98705 11.1144 7.40901C11.5364 7.83097 11.7734 8.40326 11.7734 9C11.7734 9.59674 11.5364 10.169 11.1144 10.591C10.6925 11.0129 10.1202 11.25 9.52344 11.25C8.9267 11.25 8.3544 11.0129 7.93245 10.591C7.51049 10.169 7.27344 9.59674 7.27344 9C7.27344 8.40326 7.51049 7.83097 7.93245 7.40901C8.3544 6.98705 8.9267 6.75 9.52344 6.75Z" fill="white"/>
</g>
<defs>
<clipPath id="clip0_1_411">
<rect width="18" height="18" fill="white" transform="translate(0.523438)"/>
</clipPath>
</defs>
</svg>
