<svg width="19" height="18" viewBox="0 0 19 18" fill="none" xmlns="http://www.w3.org/2000/svg">
<g clip-path="url(#clip0_1_401)">
<path d="M2.77344 2.25H16.2734C16.4724 2.25 16.6631 2.32902 16.8038 2.46967C16.9444 2.61032 17.0234 2.80109 17.0234 3V15C17.0234 15.1989 16.9444 15.3897 16.8038 15.5303C16.6631 15.671 16.4724 15.75 16.2734 15.75H2.77344C2.57453 15.75 2.38376 15.671 2.24311 15.5303C2.10246 15.3897 2.02344 15.1989 2.02344 15V3C2.02344 2.80109 2.10246 2.61032 2.24311 2.46967C2.38376 2.32902 2.57453 2.25 2.77344 2.25ZM9.56844 8.76225L4.75944 4.6785L3.78819 5.8215L9.57819 10.7378L15.2639 5.81775L14.2829 4.683L9.56919 8.76225H9.56844Z" fill="white"/>
</g>
<defs>
<clipPath id="clip0_1_401">
<rect width="18" height="18" fill="white" transform="translate(0.523438)"/>
</clipPath>
</defs>
</svg>
