<svg width="19" height="18" viewBox="0 0 19 18" fill="none" xmlns="http://www.w3.org/2000/svg">
<g clip-path="url(#clip0_1_405)">
<path d="M16.2734 12.315V14.967C16.2735 15.1569 16.2016 15.3397 16.0721 15.4786C15.9427 15.6176 15.7654 15.7022 15.5759 15.7155C15.2482 15.738 14.9804 15.75 14.7734 15.75C8.14569 15.75 2.77344 10.3778 2.77344 3.75C2.77344 3.543 2.78469 3.27525 2.80794 2.9475C2.82123 2.75808 2.90587 2.58076 3.04479 2.45131C3.18371 2.32186 3.36655 2.24991 3.55644 2.25H6.20844C6.30147 2.24991 6.39121 2.28439 6.46023 2.34677C6.52926 2.40914 6.57263 2.49494 6.58194 2.5875C6.59919 2.76 6.61494 2.89725 6.62994 3.0015C6.77899 4.04169 7.08444 5.05337 7.53594 6.00225C7.60719 6.15225 7.56069 6.3315 7.42569 6.4275L5.80719 7.584C6.79678 9.88984 8.63435 11.7274 10.9402 12.717L12.0952 11.1015C12.1424 11.0355 12.2113 10.9882 12.2898 10.9677C12.3683 10.9473 12.4516 10.9551 12.5249 10.9897C13.4737 11.4404 14.4851 11.7451 15.5249 11.8935C15.6292 11.9085 15.7664 11.925 15.9374 11.9415C16.0299 11.951 16.1155 11.9944 16.1777 12.0634C16.2399 12.1324 16.2743 12.2221 16.2742 12.315H16.2734Z" fill="white"/>
</g>
<defs>
<clipPath id="clip0_1_405">
<rect width="18" height="18" fill="white" transform="translate(0.523438)"/>
</clipPath>
</defs>
</svg>
