<svg width="17" height="14" viewBox="0 0 17 14" fill="none" xmlns="http://www.w3.org/2000/svg">
<path d="M16.1449 2.24201C15.5723 2.49528 14.9651 2.66161 14.3434 2.73551C14.9987 2.34358 15.4892 1.72677 15.7234 1.00001C15.1084 1.36601 14.4342 1.62251 13.7314 1.76126C13.2594 1.25619 12.6337 0.921228 11.9516 0.808445C11.2696 0.695661 10.5694 0.811374 9.95987 1.1376C9.35036 1.46382 8.86571 1.98227 8.58125 2.61235C8.2968 3.24243 8.22848 3.94884 8.38692 4.62176C7.13975 4.55925 5.91967 4.23515 4.80588 3.6705C3.6921 3.10586 2.70951 2.31329 1.92192 1.34426C1.64313 1.82309 1.49663 2.36743 1.49742 2.92151C1.49742 4.00901 2.05092 4.96976 2.89242 5.53226C2.39442 5.51658 1.90739 5.38209 1.47192 5.14001V5.17901C1.47207 5.90328 1.72269 6.60522 2.1813 7.1658C2.63991 7.72638 3.27828 8.11111 3.98817 8.25476C3.52588 8.38003 3.04115 8.3985 2.57067 8.30876C2.77082 8.93218 3.16092 9.47741 3.68636 9.86809C4.2118 10.2588 4.84626 10.4754 5.50092 10.4875C4.85028 10.9985 4.1053 11.3762 3.30858 11.5991C2.51185 11.822 1.67901 11.8857 0.857666 11.7865C2.29144 12.7086 3.96049 13.1981 5.66517 13.1965C11.4349 13.1965 14.5902 8.41676 14.5902 4.27151C14.5902 4.13651 14.5864 4.00001 14.5804 3.86651C15.1946 3.42263 15.7246 2.87277 16.1457 2.24276L16.1449 2.24201Z" fill="white"/>
</svg>
