<svg width="19" height="18" viewBox="0 0 19 18" fill="none" xmlns="http://www.w3.org/2000/svg">
<g clip-path="url(#clip0_1_415)">
<path d="M16.6807 4.8735C17.0234 6.21 17.0234 9 17.0234 9C17.0234 9 17.0234 11.79 16.6807 13.1265C16.4902 13.8653 15.9329 14.4465 15.2272 14.643C13.9454 15 9.52344 15 9.52344 15C9.52344 15 5.10369 15 3.81969 14.643C3.11094 14.4435 2.55444 13.863 2.36619 13.1265C2.02344 11.79 2.02344 9 2.02344 9C2.02344 9 2.02344 6.21 2.36619 4.8735C2.55669 4.13475 3.11394 3.5535 3.81969 3.357C5.10369 3 9.52344 3 9.52344 3C9.52344 3 13.9454 3 15.2272 3.357C15.9359 3.5565 16.4924 4.137 16.6807 4.8735ZM8.02344 11.625L12.5234 9L8.02344 6.375V11.625Z" fill="white"/>
</g>
<defs>
<clipPath id="clip0_1_415">
<rect width="18" height="18" fill="white" transform="translate(0.523438)"/>
</clipPath>
</defs>
</svg>
